<?xml version="1.0" encoding="UTF-8" standalone="no"?>
<!-- Generator: Adobe Illustrator 16.0.0, SVG Export Plug-In . SVG Version: 6.00 Build 0)  -->

<svg
   xmlns:dc="http://purl.org/dc/elements/1.1/"
   xmlns:cc="http://creativecommons.org/ns#"
   xmlns:rdf="http://www.w3.org/1999/02/22-rdf-syntax-ns#"
   xmlns:svg="http://www.w3.org/2000/svg"
   xmlns="http://www.w3.org/2000/svg"
   xmlns:sodipodi="http://sodipodi.sourceforge.net/DTD/sodipodi-0.dtd"
   xmlns:inkscape="http://www.inkscape.org/namespaces/inkscape"
   version="1.1"
   id="Vrstva_1"
   x="0px"
   y="0px"
   width="169.99001"
   height="69.750999"
   viewBox="0 0 169.99001 69.750999"
   enable-background="new 0 0 190 80"
   xml:space="preserve"
   sodipodi:docname="logo.svg"
   inkscape:version="0.92.1 r15371"><metadata
     id="metadata72"><rdf:RDF><cc:Work
         rdf:about=""><dc:format>image/svg+xml</dc:format><dc:type
           rdf:resource="http://purl.org/dc/dcmitype/StillImage" /><dc:title></dc:title></cc:Work></rdf:RDF></metadata><defs
     id="defs70" /><sodipodi:namedview
     pagecolor="#ffffff"
     bordercolor="#666666"
     borderopacity="1"
     objecttolerance="10"
     gridtolerance="10"
     guidetolerance="10"
     inkscape:pageopacity="0"
     inkscape:pageshadow="2"
     inkscape:window-width="1600"
     inkscape:window-height="840"
     id="namedview68"
     showgrid="false"
     inkscape:pagecheckerboard="false"
     fit-margin-top="0"
     fit-margin-left="0"
     fit-margin-right="0"
     fit-margin-bottom="0"
     inkscape:zoom="3.8853657"
     inkscape:cx="65.547758"
     inkscape:cy="41.010569"
     inkscape:window-x="0"
     inkscape:window-y="0"
     inkscape:window-maximized="1"
     inkscape:current-layer="Vrstva_1" /><path
     d="m 165.247,65.367 v -9.962 h -2.719 v 4.688 c 0,1.178 -0.168,2.019 -0.509,2.525 -0.337,0.51 -0.888,0.762 -1.647,0.762 -0.557,0 -0.965,-0.179 -1.221,-0.537 -0.256,-0.36 -0.383,-0.899 -0.383,-1.617 v -5.819 h -2.718 v 6.496 c 0,1.175 0.297,2.078 0.892,2.704 0.594,0.627 1.477,0.939 2.646,0.939 0.684,0 1.292,-0.125 1.826,-0.379 0.535,-0.252 0.947,-0.611 1.238,-1.074 h 0.144 l 0.364,1.274 z m -11.609,-7.733 c -0.393,-0.777 -0.954,-1.375 -1.686,-1.791 -0.729,-0.416 -1.574,-0.625 -2.529,-0.625 -1.539,0 -2.732,0.453 -3.582,1.355 -0.85,0.902 -1.273,2.167 -1.273,3.795 0,1.046 0.196,1.961 0.588,2.744 0.393,0.785 0.953,1.386 1.684,1.805 0.73,0.42 1.574,0.629 2.531,0.629 1.527,0 2.718,-0.457 3.572,-1.373 0.854,-0.914 1.283,-2.183 1.283,-3.805 0,-1.045 -0.195,-1.956 -0.588,-2.734 m -5.818,0.511 c 0.32,-0.49 0.842,-0.735 1.566,-0.735 0.73,0 1.258,0.247 1.578,0.739 0.32,0.494 0.48,1.232 0.48,2.219 0,0.992 -0.158,1.739 -0.477,2.241 -0.319,0.502 -0.84,0.754 -1.564,0.754 -0.729,0 -1.258,-0.253 -1.58,-0.759 -0.324,-0.504 -0.485,-1.25 -0.485,-2.236 0,-0.99 0.159,-1.732 0.482,-2.223 m -7.747,-0.015 c 0.299,0.488 0.449,1.225 0.449,2.203 0,2.008 -0.609,3.012 -1.828,3.012 -0.688,0 -1.191,-0.231 -1.511,-0.693 -0.317,-0.465 -0.476,-1.229 -0.476,-2.301 v -0.293 c 0.012,-0.95 0.172,-1.633 0.48,-2.045 0.309,-0.414 0.799,-0.619 1.471,-0.619 0.643,-0.003 1.113,0.243 1.415,0.736 m 1.418,6.8 c 0.576,-0.41 1.021,-1.008 1.334,-1.791 0.311,-0.784 0.467,-1.707 0.467,-2.771 0,-1.613 -0.333,-2.877 -0.998,-3.787 -0.665,-0.908 -1.586,-1.363 -2.762,-1.363 -1.248,0 -2.189,0.494 -2.824,1.479 h -0.125 L 136.2,55.405 h -2.211 v 14.346 h 2.719 v -4.037 c 0,-0.129 -0.049,-0.609 -0.145,-1.441 h 0.145 c 0.664,0.849 1.582,1.273 2.753,1.273 0.779,0 1.454,-0.205 2.03,-0.616 M 126.31,51.3 c 0.422,-0.299 1.006,-0.752 1.75,-1.359 0.746,-0.609 1.273,-1.067 1.583,-1.377 v -0.188 h -3.048 c -0.375,0.602 -1.072,1.493 -2.096,2.682 V 51.3 Z m 2.316,1.041 v 7.957 c 0,1.01 -0.204,1.75 -0.611,2.225 -0.406,0.471 -1.063,0.707 -1.964,0.707 -0.933,0 -1.601,-0.234 -2.005,-0.704 -0.403,-0.47 -0.605,-1.205 -0.605,-2.209 v -7.976 h -2.752 v 8.395 c 0,1.49 0.463,2.665 1.389,3.523 0.928,0.857 2.228,1.287 3.902,1.287 1.111,0 2.072,-0.193 2.887,-0.58 0.815,-0.386 1.438,-0.939 1.867,-1.664 0.432,-0.727 0.646,-1.569 0.646,-2.531 v -8.43 z m -20.967,10.302 c -0.338,-0.487 -0.506,-1.223 -0.506,-2.203 0,-0.98 0.166,-1.729 0.502,-2.24 0.336,-0.516 0.808,-0.771 1.412,-0.771 0.742,0 1.278,0.23 1.608,0.694 0.328,0.464 0.494,1.229 0.494,2.3 v 0.293 c -0.03,0.969 -0.207,1.655 -0.53,2.059 -0.322,0.404 -0.833,0.605 -1.527,0.605 -0.628,0 -1.113,-0.244 -1.453,-0.737 m 3.325,1.432 h 0.116 l 0.526,1.292 h 2.084 V 51.503 h -2.727 v 3.189 c 0,0.582 0.068,1.244 0.205,1.988 h -0.09 c -0.66,-0.976 -1.615,-1.463 -2.869,-1.463 -1.193,0 -2.132,0.457 -2.812,1.369 -0.681,0.911 -1.021,2.184 -1.021,3.817 0,1.608 0.334,2.868 1.004,3.776 0.668,0.908 1.586,1.363 2.758,1.363 1.266,0.004 2.208,-0.487 2.826,-1.467 M 99.872,61.572 c 0,0.601 -0.188,1.081 -0.564,1.442 -0.378,0.363 -0.882,0.543 -1.512,0.543 -0.879,0 -1.318,-0.383 -1.318,-1.148 0,-0.535 0.193,-0.934 0.579,-1.193 0.388,-0.262 0.976,-0.404 1.765,-0.429 l 1.051,-0.034 v 0.819 z m 2.701,3.795 v -6.638 c 0,-1.188 -0.355,-2.072 -1.069,-2.655 -0.712,-0.582 -1.737,-0.873 -3.074,-0.873 -1.396,0 -2.667,0.3 -3.813,0.899 l 0.901,1.836 c 1.074,-0.481 2.011,-0.723 2.806,-0.723 1.035,0 1.551,0.506 1.551,1.516 v 0.436 l -1.729,0.055 c -1.492,0.055 -2.605,0.332 -3.346,0.832 -0.74,0.502 -1.109,1.283 -1.109,2.34 0,1.01 0.273,1.787 0.823,2.336 0.55,0.546 1.304,0.818 2.261,0.818 0.776,0 1.408,-0.111 1.893,-0.334 0.484,-0.224 0.955,-0.623 1.412,-1.197 h 0.072 l 0.524,1.354 z M 91.915,58.871 c 0,-1.181 -0.299,-2.085 -0.899,-2.713 -0.601,-0.626 -1.479,-0.94 -2.637,-0.94 -0.679,0 -1.282,0.125 -1.813,0.371 -0.531,0.246 -0.949,0.61 -1.25,1.092 h -0.151 l -0.366,-1.274 h -2.077 v 9.962 h 2.718 v -4.688 c 0,-1.176 0.17,-2.019 0.508,-2.524 0.338,-0.509 0.889,-0.763 1.648,-0.763 0.559,0 0.965,0.18 1.221,0.539 0.256,0.359 0.383,0.898 0.383,1.617 v 5.817 h 2.719 v -6.496 z m -18.701,2.701 c 0,0.601 -0.188,1.081 -0.566,1.442 -0.378,0.363 -0.881,0.543 -1.51,0.543 -0.879,0 -1.319,-0.383 -1.319,-1.148 0,-0.535 0.193,-0.934 0.58,-1.193 0.386,-0.262 0.974,-0.404 1.764,-0.429 l 1.051,-0.034 z m 2.699,3.795 v -6.638 c 0,-1.188 -0.357,-2.072 -1.069,-2.655 -0.713,-0.582 -1.737,-0.873 -3.074,-0.873 -1.396,0 -2.667,0.3 -3.813,0.899 l 0.899,1.836 c 1.075,-0.481 2.011,-0.723 2.806,-0.723 1.033,0 1.551,0.506 1.551,1.516 v 0.436 l -1.729,0.055 c -1.49,0.055 -2.605,0.332 -3.345,0.832 -0.74,0.502 -1.109,1.283 -1.109,2.34 0,1.01 0.275,1.787 0.824,2.336 0.549,0.546 1.302,0.818 2.259,0.818 0.778,0 1.409,-0.111 1.893,-0.334 0.484,-0.224 0.955,-0.623 1.412,-1.197 h 0.071 l 0.526,1.354 z M 59.162,62.643 c -0.338,-0.487 -0.508,-1.223 -0.508,-2.203 0,-0.98 0.168,-1.729 0.504,-2.24 0.335,-0.516 0.806,-0.771 1.411,-0.771 0.743,0 1.279,0.23 1.609,0.694 0.33,0.464 0.495,1.229 0.495,2.3 v 0.293 c -0.031,0.969 -0.207,1.655 -0.53,2.059 -0.324,0.404 -0.833,0.605 -1.528,0.605 -0.63,0 -1.114,-0.244 -1.453,-0.737 m 3.324,1.432 h 0.116 l 0.526,1.292 h 2.085 V 51.503 h -2.727 v 3.189 c 0,0.582 0.068,1.244 0.205,1.988 h -0.089 c -0.659,-0.976 -1.615,-1.463 -2.869,-1.463 -1.194,0 -2.13,0.457 -2.81,1.369 -0.681,0.911 -1.021,2.184 -1.021,3.817 0,1.608 0.334,2.868 1.002,3.776 0.668,0.908 1.587,1.363 2.758,1.363 1.264,0.004 2.206,-0.487 2.824,-1.467 m -8.447,-6.441 c -0.393,-0.777 -0.954,-1.375 -1.685,-1.791 -0.73,-0.416 -1.574,-0.625 -2.53,-0.625 -1.539,0 -2.732,0.453 -3.582,1.355 -0.849,0.902 -1.274,2.167 -1.274,3.795 0,1.046 0.196,1.961 0.588,2.744 0.392,0.785 0.954,1.386 1.684,1.805 0.731,0.42 1.575,0.629 2.531,0.629 1.526,0 2.717,-0.457 3.573,-1.373 0.855,-0.914 1.283,-2.183 1.283,-3.805 0,-1.045 -0.196,-1.956 -0.588,-2.734 m -5.818,0.511 c 0.32,-0.49 0.843,-0.735 1.568,-0.735 0.73,0 1.256,0.247 1.577,0.739 0.321,0.494 0.481,1.232 0.481,2.219 0,0.992 -0.159,1.739 -0.477,2.241 -0.318,0.502 -0.839,0.754 -1.563,0.754 -0.731,0 -1.258,-0.253 -1.582,-0.759 -0.324,-0.504 -0.485,-1.25 -0.485,-2.236 0,-0.99 0.16,-1.732 0.481,-2.223 M 40.425,58.13 c 0.332,0.488 0.499,1.225 0.499,2.203 0,0.978 -0.165,1.727 -0.495,2.24 -0.329,0.516 -0.773,0.771 -1.332,0.771 -0.689,0 -1.193,-0.232 -1.51,-0.694 -0.318,-0.464 -0.477,-1.229 -0.477,-2.3 v -0.293 c 0.012,-0.951 0.172,-1.633 0.481,-2.045 0.309,-0.414 0.799,-0.621 1.47,-0.621 0.576,0 1.031,0.246 1.364,0.739 M 37.11,56.697 h -0.107 c 0.071,-0.901 0.107,-1.56 0.107,-1.968 v -3.227 h -2.717 v 13.863 h 2.076 l 0.454,-1.096 h 0.188 c 0.665,0.849 1.583,1.273 2.753,1.273 1.182,0 2.116,-0.451 2.801,-1.354 0.687,-0.902 1.03,-2.178 1.03,-3.823 0,-1.597 -0.333,-2.854 -0.998,-3.772 -0.665,-0.916 -1.586,-1.377 -2.762,-1.377 -1.249,0.002 -2.19,0.496 -2.825,1.481 m -5.186,0.937 c -0.393,-0.777 -0.954,-1.375 -1.685,-1.791 -0.73,-0.416 -1.574,-0.625 -2.53,-0.625 -1.539,0 -2.732,0.453 -3.582,1.355 -0.849,0.902 -1.274,2.167 -1.274,3.795 0,1.046 0.196,1.961 0.588,2.744 0.392,0.785 0.953,1.386 1.684,1.805 0.73,0.42 1.574,0.629 2.531,0.629 1.526,0 2.717,-0.457 3.573,-1.373 0.855,-0.914 1.284,-2.183 1.284,-3.805 -10e-4,-1.045 -0.197,-1.956 -0.589,-2.734 m -5.818,0.511 c 0.32,-0.49 0.843,-0.735 1.568,-0.735 0.731,0 1.256,0.247 1.577,0.739 0.321,0.494 0.481,1.232 0.481,2.219 0,0.992 -0.159,1.739 -0.476,2.241 -0.318,0.502 -0.839,0.754 -1.564,0.754 -0.73,0 -1.257,-0.253 -1.581,-0.759 -0.324,-0.504 -0.486,-1.25 -0.486,-2.236 -0.001,-0.99 0.159,-1.732 0.481,-2.223 m -7.503,7.222 3.796,-9.962 h -2.843 l -1.916,5.677 c -0.237,0.789 -0.371,1.47 -0.401,2.039 H 17.186 C 17.132,62.48 16.999,61.8 16.785,61.082 L 14.86,55.405 h -2.842 l 3.796,9.962 z M 10.985,59.598 C 10.534,59.012 9.699,58.428 8.481,57.846 7.561,57.407 6.977,57.102 6.731,56.932 6.484,56.764 6.305,56.588 6.191,56.407 6.078,56.227 6.022,56.014 6.022,55.77 c 0,-0.393 0.14,-0.709 0.419,-0.953 0.279,-0.243 0.681,-0.364 1.203,-0.364 0.439,0 0.887,0.056 1.341,0.168 0.455,0.114 1.029,0.313 1.724,0.597 L 11.6,53.072 C 10.929,52.78 10.286,52.553 9.67,52.393 9.056,52.234 8.409,52.154 7.732,52.154 c -1.378,0 -2.458,0.329 -3.238,0.987 -0.781,0.66 -1.172,1.565 -1.172,2.718 0,0.612 0.118,1.147 0.356,1.604 0.237,0.457 0.555,0.857 0.953,1.202 0.398,0.345 0.996,0.704 1.792,1.078 0.85,0.404 1.412,0.698 1.688,0.882 0.276,0.186 0.485,0.377 0.629,0.575 0.142,0.199 0.213,0.427 0.213,0.683 0,0.455 -0.161,0.801 -0.485,1.032 -0.324,0.231 -0.789,0.347 -1.394,0.347 -0.505,0 -1.062,-0.078 -1.671,-0.238 C 4.794,62.863 4.05,62.586 3.172,62.195 v 2.565 c 1.069,0.521 2.298,0.785 3.688,0.785 1.508,0 2.687,-0.34 3.533,-1.017 0.847,-0.679 1.27,-1.604 1.27,-2.78 -10e-4,-0.849 -0.227,-1.566 -0.678,-2.15"
     id="path61"
     inkscape:connector-curvature="0"
     style="fill:#ffffff" /><path
     d="m 163.534,0 c -1.053,0.625 -1.875,1.242 -2.465,1.853 -0.574,-0.582 -1.379,-1.2 -2.41,-1.853 h -2.137 v 0.284 c 0.834,0.864 1.44,1.525 1.82,1.985 0.379,0.459 0.67,0.855 0.873,1.185 h 3.759 c 0.22,-0.352 0.574,-0.82 1.069,-1.406 0.494,-0.586 1.037,-1.174 1.627,-1.764 V 0 Z m 1.485,13.262 c -0.531,-0.691 -1.52,-1.381 -2.958,-2.069 -1.088,-0.52 -1.778,-0.879 -2.069,-1.08 -0.291,-0.2 -0.502,-0.407 -0.638,-0.621 -0.133,-0.214 -0.198,-0.465 -0.198,-0.753 0,-0.463 0.164,-0.839 0.494,-1.127 0.33,-0.288 0.803,-0.431 1.422,-0.431 0.521,0 1.047,0.066 1.584,0.2 0.537,0.134 1.217,0.368 2.037,0.705 l 1.053,-2.538 c -0.791,-0.343 -1.553,-0.61 -2.278,-0.8 -0.728,-0.189 -1.489,-0.284 -2.29,-0.284 -1.628,0 -2.904,0.389 -3.828,1.168 -0.923,0.779 -1.384,1.85 -1.384,3.212 0,0.723 0.14,1.354 0.421,1.896 0.279,0.54 0.656,1.014 1.126,1.421 0.472,0.407 1.177,0.832 2.117,1.273 1.003,0.478 1.668,0.825 1.995,1.043 0.326,0.217 0.574,0.444 0.742,0.679 0.168,0.235 0.254,0.505 0.254,0.806 0,0.541 -0.192,0.948 -0.575,1.221 -0.382,0.274 -0.933,0.411 -1.647,0.411 -0.597,0 -1.255,-0.094 -1.975,-0.284 -0.719,-0.189 -1.6,-0.516 -2.639,-0.979 v 3.033 c 1.266,0.618 2.718,0.926 4.36,0.926 1.781,0 3.175,-0.4 4.175,-1.201 1,-0.8 1.5,-1.896 1.5,-3.285 0,-1.003 -0.267,-1.851 -0.801,-2.542 m -19.112,6.818 3.971,-12.057 h 0.094 c -0.084,1.938 -0.132,3.131 -0.141,3.58 -0.012,0.45 -0.019,0.846 -0.019,1.19 v 7.286 h 3.044 V 4.686 h -4.443 l -3.864,11.772 h -0.063 L 140.842,4.686 h -4.444 V 20.08 h 2.918 v -7.16 c 0,-0.821 -0.066,-2.46 -0.201,-4.917 h 0.096 l 3.705,12.078 z m -21.86,-4.486 c 0,0.709 -0.224,1.278 -0.668,1.706 -0.446,0.429 -1.041,0.643 -1.785,0.643 -1.039,0 -1.558,-0.453 -1.558,-1.358 0,-0.632 0.227,-1.103 0.684,-1.411 0.457,-0.309 1.15,-0.478 2.085,-0.506 l 1.242,-0.042 z m 3.193,4.486 v -7.844 c 0,-1.405 -0.422,-2.45 -1.266,-3.138 -0.842,-0.688 -2.053,-1.032 -3.632,-1.032 -1.649,0 -3.151,0.354 -4.508,1.064 l 1.063,2.169 c 1.271,-0.568 2.377,-0.853 3.317,-0.853 1.221,0 1.831,0.596 1.831,1.79 v 0.516 l -2.043,0.063 c -1.762,0.063 -3.079,0.391 -3.953,0.985 -0.874,0.593 -1.313,1.514 -1.313,2.764 0,1.193 0.325,2.113 0.976,2.758 0.649,0.646 1.539,0.969 2.669,0.969 0.92,0 1.665,-0.132 2.236,-0.395 0.572,-0.263 1.129,-0.735 1.67,-1.416 h 0.084 l 0.621,1.6 z M 107.095,0 C 106.04,0.625 105.22,1.242 104.631,1.853 104.055,1.271 103.25,0.653 102.219,0 h -2.138 v 0.284 c 0.834,0.864 1.443,1.525 1.822,1.985 0.377,0.459 0.668,0.855 0.873,1.185 h 3.76 c 0.218,-0.352 0.574,-0.82 1.067,-1.406 0.495,-0.586 1.037,-1.174 1.628,-1.764 V 0 Z m 1.484,13.262 c -0.533,-0.691 -1.521,-1.381 -2.959,-2.069 -1.088,-0.52 -1.778,-0.879 -2.069,-1.08 -0.291,-0.2 -0.503,-0.407 -0.638,-0.621 -0.133,-0.214 -0.199,-0.465 -0.199,-0.753 0,-0.463 0.165,-0.839 0.495,-1.127 0.329,-0.288 0.804,-0.431 1.422,-0.431 0.519,0 1.047,0.066 1.584,0.2 0.537,0.134 1.216,0.368 2.038,0.705 l 1.053,-2.538 c -0.793,-0.343 -1.553,-0.61 -2.279,-0.8 -0.728,-0.189 -1.49,-0.284 -2.291,-0.284 -1.627,0 -2.904,0.389 -3.826,1.168 -0.924,0.779 -1.385,1.85 -1.385,3.212 0,0.723 0.141,1.354 0.42,1.896 0.281,0.54 0.656,1.014 1.127,1.421 0.472,0.407 1.176,0.832 2.117,1.273 1.004,0.478 1.668,0.825 1.995,1.043 0.326,0.217 0.573,0.444 0.741,0.679 0.17,0.235 0.254,0.505 0.254,0.806 0,0.541 -0.191,0.948 -0.574,1.221 -0.383,0.274 -0.933,0.411 -1.646,0.411 -0.598,0 -1.256,-0.094 -1.975,-0.284 -0.722,-0.189 -1.601,-0.516 -2.639,-0.979 v 3.033 c 1.264,0.618 2.717,0.926 4.357,0.926 1.783,0 3.177,-0.4 4.177,-1.201 1,-0.8 1.5,-1.896 1.5,-3.285 0,-1.003 -0.266,-1.851 -0.8,-2.542 m -10.74,4.123 H 90.268 L 97.639,6.792 V 4.686 H 86.581 v 2.695 h 7.183 l -7.382,10.583 v 2.116 h 11.457 z"
     id="path63"
     inkscape:connector-curvature="0"
     style="fill:#ffffff" /><path
     d="m 0.001,30.106 c 0,0 0,-2.351 2.332,-2.648 0,0 10.482,-1.113 15.184,-1.938 4.703,-0.823 6.936,-1.411 8.111,-0.94 1.176,0.471 7.407,1.009 10.463,1.503 3.056,0.495 8.346,0.025 9.639,0.377 1.293,0.353 11.286,3.527 13.519,3.997 2.234,0.471 4.35,1.764 7.994,1.176 3.644,-0.588 9.522,-2.351 10.933,-2.234 1.411,0.118 11.285,0.823 12.461,0.118 1.177,-0.706 7.288,-3.645 7.877,-3.645 0.587,0 9.286,2.939 11.755,3.292 2.469,0.353 6.35,0.117 7.994,0.234 1.646,0.118 10.58,0.126 13.52,-0.587 2.94,-0.713 13.99,-2.234 15.4,-2.469 1.409,-0.235 8.11,-1.93 10.462,-1.93 h 9.992 c 0,0 2.353,0 2.353,2.35 v 15.48 c 0,0 0,2.352 -2.353,2.352 H 2.352 c 0,0 -2.352,0 -2.352,-2.352 z"
     id="path65"
     inkscape:connector-curvature="0"
     style="fill:#ffffff" /></svg>