<?xml version="1.0" encoding="UTF-8" standalone="no"?>
<!-- Generator: Adobe Illustrator 26.3.1, SVG Export Plug-In . SVG Version: 6.00 Build 0)  -->

<svg
   xmlns:dc="http://purl.org/dc/elements/1.1/"
   xmlns:cc="http://creativecommons.org/ns#"
   xmlns:rdf="http://www.w3.org/1999/02/22-rdf-syntax-ns#"
   xmlns:svg="http://www.w3.org/2000/svg"
   xmlns="http://www.w3.org/2000/svg"
   xmlns:sodipodi="http://sodipodi.sourceforge.net/DTD/sodipodi-0.dtd"
   xmlns:inkscape="http://www.inkscape.org/namespaces/inkscape"
   version="1.1"
   x="0px"
   y="0px"
   viewBox="0 0 140 100"
   xml:space="preserve"
   id="svg12"
   sodipodi:docname="bakalari.svg"
   width="140"
   height="100"
   inkscape:version="0.92.1 r15371"><metadata
     id="metadata18"><rdf:RDF><cc:Work
         rdf:about=""><dc:format>image/svg+xml</dc:format><dc:type
           rdf:resource="http://purl.org/dc/dcmitype/StillImage" /><dc:title></dc:title></cc:Work></rdf:RDF></metadata><defs
     id="defs16" /><sodipodi:namedview
     pagecolor="#ffffff"
     bordercolor="#666666"
     borderopacity="1"
     objecttolerance="10"
     gridtolerance="10"
     guidetolerance="10"
     inkscape:pageopacity="0"
     inkscape:pageshadow="2"
     inkscape:window-width="1600"
     inkscape:window-height="840"
     id="namedview14"
     showgrid="false"
     inkscape:zoom="0.48163265"
     inkscape:cx="-384.11017"
     inkscape:cy="245"
     inkscape:window-x="0"
     inkscape:window-y="0"
     inkscape:window-maximized="1"
     inkscape:current-layer="svg12" /><style
     type="text/css"
     id="style2">
	.st0{fill:#A0F2F8;}
	.st1{fill:#FFFFFF;}
</style><g
     id="Vrstva_2"
     transform="translate(0,-390)" /><g
     id="Vrstva_1"
     transform="matrix(0.26775733,0,0,0.26775733,4.3994541,-15.60155)"><g
       id="g9"><path
         class="st1"
         d="M 360.01,258.29 336.96,245 360.01,231.72 c 1.86,-1.07 3.01,-3.06 3,-5.2 l -0.05,-46.22 c 0,-2.14 -1.15,-4.12 -3,-5.19 L 248,110.45 c -1.86,-1.07 -4.14,-1.07 -6,0 L 130.03,175.1 c -1.86,1.07 -3,3.05 -3,5.2 v 129.27 c 0,2.14 1.14,4.12 3,5.2 L 242,379.4 c 0.93,0.54 1.96,0.8 3,0.8 1.04,0 2.07,-0.27 3,-0.8 l 111.96,-64.64 c 1.85,-1.07 3,-3.05 3,-5.19 l 0.05,-46.08 c 0,-2.15 -1.14,-4.13 -3,-5.2 z m -15.03,5.18 -28.02,16.09 -26.04,-15.06 v -32.2 l 31.03,17.89 v 0 c 0,0 0,0 0,0 z M 316.95,196.46 251,158.38 v -32.34 l 93.96,54.26 z M 239,158.38 173.04,196.46 145.03,180.29 239,126.04 Z m -71.96,48.47 v 76.16 l -28.02,16.16 V 190.69 Z m 6,86.56 65.96,38.06 v 32.34 L 145.03,309.56 Z M 245,321.08 179.04,283.02 v -76.17 l 65.96,-38.08 59.96,34.62 -23.05,13.33 c -1.85,1.07 -3,3.05 -3,5.19 v 46.04 c 0,2.14 1.14,4.12 3,5.19 l 23.04,13.32 z m 79.94,-83.01 -28.03,-16.16 23.04,-13.33 v 0 l 31.03,-17.91 0.03,32.37 z M 251,363.81 v -32.34 l 68.95,-39.79 c 0,0 0,0 0,0 l 31.05,-17.83 -0.03,32.24 z"
         id="path5"
         inkscape:connector-curvature="0"
         style="fill:#ffffff" /><path
         class="st0"
         d="m 245,431.74 c -1.04,0 -2.07,-0.27 -3,-0.8 L 85.48,340.56 c -1.86,-1.07 -3,-3.05 -3,-5.2 V 154.63 c 0,-2.14 1.14,-4.12 3,-5.2 L 242,59.07 c 1.86,-1.07 4.14,-1.07 6,0 l 156.52,90.37 c 1.86,1.07 3,3.05 3,5.2 v 180.74 c 0,2.14 -1.14,4.12 -3,5.2 L 248,430.93 c -0.93,0.54 -1.96,0.81 -3,0.81 z M 94.48,331.9 245,418.81 395.52,331.91 V 158.1 L 245,71.19 94.48,158.1 Z"
         id="path7"
         inkscape:connector-curvature="0"
         style="fill:#a0f2f8" /></g></g></svg>