<?xml version="1.0" encoding="UTF-8" standalone="no"?>
<!-- Generator: Adobe Illustrator 26.3.1, SVG Export Plug-In . SVG Version: 6.00 Build 0)  -->

<svg
   xmlns:dc="http://purl.org/dc/elements/1.1/"
   xmlns:cc="http://creativecommons.org/ns#"
   xmlns:rdf="http://www.w3.org/1999/02/22-rdf-syntax-ns#"
   xmlns:svg="http://www.w3.org/2000/svg"
   xmlns="http://www.w3.org/2000/svg"
   xmlns:sodipodi="http://sodipodi.sourceforge.net/DTD/sodipodi-0.dtd"
   xmlns:inkscape="http://www.inkscape.org/namespaces/inkscape"
   version="1.1"
   x="0px"
   y="0px"
   viewBox="0 0 140 100"
   xml:space="preserve"
   id="svg26"
   sodipodi:docname="cafeteria.svg"
   width="140"
   height="100"
   inkscape:version="0.92.1 r15371"><metadata
     id="metadata32"><rdf:RDF><cc:Work
         rdf:about=""><dc:format>image/svg+xml</dc:format><dc:type
           rdf:resource="http://purl.org/dc/dcmitype/StillImage" /><dc:title></dc:title></cc:Work></rdf:RDF></metadata><defs
     id="defs30" /><sodipodi:namedview
     pagecolor="#ffffff"
     bordercolor="#666666"
     borderopacity="1"
     objecttolerance="10"
     gridtolerance="10"
     guidetolerance="10"
     inkscape:pageopacity="0"
     inkscape:pageshadow="2"
     inkscape:window-width="1600"
     inkscape:window-height="840"
     id="namedview28"
     showgrid="false"
     inkscape:zoom="0.48163265"
     inkscape:cx="-166.10169"
     inkscape:cy="245"
     inkscape:window-x="0"
     inkscape:window-y="0"
     inkscape:window-maximized="1"
     inkscape:current-layer="svg26" /><style
     type="text/css"
     id="style2">
	.st0{fill:#A0F2F8;}
	.st1{fill:#FFFFFF;}
</style><g
     id="Vrstva_2"
     transform="translate(0,-390)" /><g
     id="Vrstva_1"
     transform="matrix(0.28679592,0,0,0.28679592,-0.2650004,-20.265)"><g
       id="g23"><path
         class="st0"
         d="M 245,419.34 C 148.87,419.34 70.66,341.13 70.66,245 70.66,148.87 148.87,70.66 245,70.66 c 96.13,0 174.34,78.21 174.34,174.34 0,96.13 -78.21,174.34 -174.34,174.34 z m 0,-336.68 c -89.51,0 -162.34,72.83 -162.34,162.34 0,89.51 72.83,162.34 162.34,162.34 89.51,0 162.34,-72.82 162.34,-162.34 C 407.34,155.49 334.52,82.66 245,82.66 Z"
         id="path5"
         inkscape:connector-curvature="0"
         style="fill:#a0f2f8" /><path
         class="st0"
         d="m 183.96,170.94 -7.64,-9.25 c 19.27,-15.9 43.66,-24.66 68.68,-24.66 17.37,0 34.63,4.22 49.92,12.21 l -5.56,10.64 c -13.58,-7.1 -28.93,-10.85 -44.37,-10.85 -22.23,0 -43.91,7.78 -61.03,21.91 z"
         id="path7"
         inkscape:connector-curvature="0"
         style="fill:#a0f2f8" /><path
         class="st0"
         d="m 161.68,313.68 c -15.9,-19.27 -24.66,-43.66 -24.66,-68.68 0,-20.26 5.64,-40 16.32,-57.1 l 10.18,6.35 c -9.48,15.19 -14.5,32.74 -14.5,50.75 0,22.24 7.78,43.92 21.91,61.05 z"
         id="path9"
         inkscape:connector-curvature="0"
         style="fill:#a0f2f8" /><path
         class="st0"
         d="m 245,352.97 c -22.16,0 -43.46,-6.67 -61.59,-19.28 l 6.85,-9.85 c 16.11,11.2 35.04,17.13 54.74,17.13 20.21,0 39.55,-6.21 55.91,-17.95 l 7,9.75 c -18.42,13.22 -40.17,20.2 -62.91,20.2 z"
         id="path11"
         inkscape:connector-curvature="0"
         style="fill:#a0f2f8" /><path
         class="st0"
         d="m 328.81,313.08 -9.31,-7.57 C 333.34,288.48 340.97,267 340.97,245 c 0,-12.33 -2.3,-24.34 -6.85,-35.68 l 11.14,-4.46 c 5.12,12.77 7.71,26.28 7.71,40.15 0,24.73 -8.58,48.91 -24.16,68.07 z"
         id="path13"
         inkscape:connector-curvature="0"
         style="fill:#a0f2f8" /><g
         id="g21"><path
           class="st1"
           d="m 293.48,219.72 c 1.17,1.17 2.71,1.76 4.24,1.76 1.53,0 3.07,-0.59 4.24,-1.76 l 44.6,-44.6 c 2.34,-2.34 2.34,-6.14 0,-8.49 -2.34,-2.34 -6.14,-2.34 -8.48,0 l -44.6,44.6 c -2.35,2.35 -2.35,6.14 0,8.49 z"
           id="path15"
           inkscape:connector-curvature="0"
           style="fill:#ffffff" /><path
           class="st1"
           d="m 276.21,203.51 c 1.17,1.17 2.71,1.76 4.24,1.76 1.53,0 3.07,-0.59 4.24,-1.76 l 44.6,-44.6 c 2.34,-2.34 2.34,-6.14 0,-8.49 -2.34,-2.34 -6.14,-2.34 -8.49,0 l -44.6,44.6 c -2.33,2.35 -2.33,6.15 0.01,8.49 z"
           id="path17"
           inkscape:connector-curvature="0"
           style="fill:#ffffff" /><path
           class="st1"
           d="m 298.44,244.11 c 7.8,0 15.13,-3.04 20.64,-8.55 l 44.47,-44.47 c 2.34,-2.34 2.34,-6.14 0,-8.49 -2.34,-2.34 -6.14,-2.34 -8.49,0 l -44.47,44.47 c -3.25,3.25 -7.56,5.03 -12.15,5.03 -4.59,0 -8.91,-1.79 -12.2,-5.08 l -0.09,-0.08 c -1.14,-1.11 -2.69,-1.73 -4.27,-1.71 -1.59,0.02 -3.11,0.67 -4.22,1.81 l -13.46,13.8 -8.62,-8.62 13.8,-13.46 c 1.15,-1.12 1.8,-2.65 1.81,-4.26 0.01,-1.6 -0.62,-3.15 -1.76,-4.28 l -0.09,-0.09 c -3.25,-3.25 -5.03,-7.56 -5.03,-12.15 0,-4.59 1.79,-8.91 5.03,-12.15 l 42.57,-42.57 c 2.34,-2.34 2.34,-6.14 0,-8.49 -2.34,-2.34 -6.14,-2.34 -8.49,0 l -42.57,42.57 c -5.51,5.51 -8.55,12.84 -8.55,20.64 0,5.77 1.67,11.29 4.77,16.01 l -9.99,9.74 -82.16,-82.16 c -2.06,-2.06 -4.8,-3.2 -7.72,-3.2 0,0 0,0 0,0 -2.92,0 -5.66,1.14 -7.72,3.2 -17.01,17.02 -5.5,42.56 9.52,59.25 8.01,8.9 31.21,35.23 41.78,47.56 3.9,4.56 8.24,7.09 12.49,8.32 l -60.33,58.84 c -3.73,3.73 -5.78,8.69 -5.78,13.96 0,5.27 2.05,10.23 5.78,13.96 3.73,3.73 8.68,5.78 13.96,5.78 5.27,0 10.23,-2.05 14.01,-5.83 l 65.68,-67.34 64.3,67.3 c 0.03,0.03 0.06,0.07 0.1,0.1 3.85,3.85 8.9,5.77 13.96,5.77 5.06,0 10.11,-1.92 13.96,-5.77 7.69,-7.69 7.69,-20.22 0,-27.91 l -66.23,-66.23 9.74,-9.99 c 4.72,3.11 10.24,4.77 16.02,4.77 z m -126.05,90.88 c -1.46,1.46 -3.4,2.27 -5.47,2.27 -2.07,0 -4.01,-0.8 -5.47,-2.27 -1.46,-1.46 -2.27,-3.4 -2.27,-5.47 0,-2.07 0.81,-4.01 2.21,-5.42 l 67.86,-66.18 9.06,9.48 z M 330.43,335 c -3.01,3 -7.89,3.02 -10.91,0.04 l -85.78,-89.79 c -1.71,-1.79 -4.28,-2.34 -6.53,-1.43 -0.05,0.02 -0.1,0.05 -0.15,0.07 -0.19,0.08 -0.38,0.16 -0.57,0.26 -0.95,0.51 -9.46,4.75 -16.59,-3.56 -10.62,-12.38 -33.93,-38.84 -41.97,-47.77 -1,-1.11 -23.96,-26.97 -10.7,-41.95 l 85.5,85.5 c 0,0 0,0 0.01,0.01 0,0 0.01,0 0.01,0.01 l 87.67,87.67 c 3.03,3.01 3.03,7.92 0.01,10.94 z"
           id="path19"
           inkscape:connector-curvature="0"
           style="fill:#ffffff" /></g></g></g></svg>