<?xml version="1.0" encoding="utf-8"?>
<!-- Generator: Adobe Illustrator 16.0.0, SVG Export Plug-In . SVG Version: 6.00 Build 0)  -->
<!DOCTYPE svg PUBLIC "-//W3C//DTD SVG 1.1//EN" "http://www.w3.org/Graphics/SVG/1.1/DTD/svg11.dtd">
<svg version="1.1" id="Vrstva_1" xmlns="http://www.w3.org/2000/svg" xmlns:xlink="http://www.w3.org/1999/xlink" x="0px" y="0px"
	 width="52px" height="52px" viewBox="0 0 52 52" enable-background="new 0 0 52 52" xml:space="preserve">
<g>
	<path fill="#FFFFFF" d="M26,49.96C12.788,49.96,2.04,39.211,2.04,26C2.04,12.788,12.788,2.04,26,2.04S49.96,12.788,49.96,26
		C49.96,39.211,39.212,49.96,26,49.96z M26,2.999C13.317,2.999,3,13.317,3,26s10.317,23,23,23c12.684,0,23.001-10.317,23.001-23
		S38.684,2.999,26,2.999z"/>
	<g>
		<g>
			<g>
				<path fill="#A0F2F8" d="M26,11.553c1.928,0,3.844,0.39,5.608,1.131l0.729-0.729c-1.979-0.893-4.152-1.362-6.338-1.362
					c-3.28,0-6.38,1.006-9.012,2.911l0.688,0.689C20.117,12.465,22.977,11.553,26,11.553z"/>
			</g>
			<g>
				<path fill="#A0F2F8" d="M11.554,26c0-2.296,0.544-4.55,1.58-6.576c-0.224-0.265-0.44-0.541-0.646-0.829
					c-1.239,2.261-1.894,4.809-1.894,7.405c0,3.282,1.06,6.491,2.994,9.123l0.695-0.677C12.519,31.998,11.554,29.033,11.554,26z"/>
			</g>
			<g>
				<path fill="#A0F2F8" d="M26,40.446c-2.604,0-5.126-0.693-7.345-2.007l-0.689,0.706c2.415,1.479,5.178,2.26,8.034,2.26
					c2.915,0,5.713-0.806,8.156-2.335l-0.677-0.708C31.229,39.729,28.666,40.446,26,40.446z"/>
			</g>
			<g>
				<path fill="#A0F2F8" d="M40.563,20.972l-0.757,0.758c0.426,1.375,0.641,2.807,0.641,4.271c0,2.981-0.934,5.899-2.642,8.323
					l0.688,0.687c1.883-2.61,2.913-5.774,2.913-9.01C41.406,24.27,41.12,22.584,40.563,20.972z"/>
			</g>
			<g>
				
					<rect x="32.111" y="17.172" transform="matrix(-0.7071 0.7072 -0.7072 -0.7071 76.309 4.7276)" fill="#A0F2F8" width="10.128" height="1.995"/>
			</g>
			<g>
				
					<rect x="29.681" y="14.742" transform="matrix(-0.7071 0.7071 -0.7071 -0.7071 70.4433 2.3009)" fill="#A0F2F8" width="10.129" height="1.995"/>
			</g>
		</g>
	</g>
	<g>
		
			<rect x="32.111" y="17.172" transform="matrix(-0.7071 0.7072 -0.7072 -0.7071 76.309 4.7276)" fill="#FFFFFF" width="10.128" height="1.995"/>
		
			<rect x="29.681" y="14.742" transform="matrix(-0.7071 0.7071 -0.7071 -0.7071 70.4433 2.3009)" fill="#FFFFFF" width="10.129" height="1.995"/>
		<path fill="#FFFFFF" d="M30.144,26.66l1.252-1.284c0.685,0.427,1.476,0.655,2.303,0.655c1.165,0,2.26-0.453,3.083-1.276
			l7.07-7.071l-1.41-1.41l-7.072,7.07c-0.445,0.446-1.039,0.692-1.671,0.692s-1.226-0.246-1.672-0.692l-0.73-0.725l-2.564,2.63
			l-1.066-1.067l2.63-2.563l-0.709-0.715l-0.016-0.015c-0.922-0.923-0.922-2.423,0-3.345l7.071-7.07l-1.412-1.411l-7.069,7.07
			c-1.457,1.457-1.666,3.696-0.619,5.384l-1.287,1.254L14.429,10.945c-0.323-0.323-0.753-0.501-1.21-0.501
			c-0.456,0-0.886,0.178-1.209,0.5c-2.531,2.532-0.841,6.307,1.376,8.77c1.164,1.293,4.528,5.111,6.057,6.895
			c0.541,0.63,1.124,0.985,1.667,1.179l-8.598,8.387c-0.565,0.564-0.876,1.315-0.876,2.115c0,0.798,0.311,1.549,0.876,2.114
			c0.564,0.564,1.314,0.875,2.113,0.875s1.55-0.311,2.124-0.884l9.431-9.672l9.234,9.664l0.016,0.018
			c0.565,0.564,1.316,0.876,2.114,0.876c0.799,0,1.55-0.312,2.115-0.876c1.165-1.165,1.165-3.063,0-4.229L30.144,26.66z
			 M15.329,38.992c-0.188,0.188-0.438,0.291-0.704,0.291c-0.266,0-0.515-0.104-0.703-0.291c-0.188-0.188-0.291-0.438-0.291-0.703
			c0-0.267,0.104-0.516,0.282-0.695l9.749-9.507l1.139,1.192L15.329,38.992z M38.248,38.993c-0.188,0.188-0.438,0.291-0.704,0.291
			c-0.262,0-0.509-0.102-0.697-0.284L23.872,25.419l-0.677,0.383c-0.003,0.002-0.384,0.2-0.871,0.2
			c-0.521,0-0.967-0.227-1.366-0.692c-1.536-1.792-4.919-5.631-6.089-6.931c-0.139-0.155-3.292-3.705-1.638-5.81l25.016,25.017
			C38.636,37.975,38.636,38.605,38.248,38.993z"/>
	</g>
</g>
</svg>
