<?xml version="1.0" encoding="UTF-8" standalone="no"?>
<!-- Generator: Adobe Illustrator 26.3.1, SVG Export Plug-In . SVG Version: 6.00 Build 0)  -->

<svg
   xmlns:dc="http://purl.org/dc/elements/1.1/"
   xmlns:cc="http://creativecommons.org/ns#"
   xmlns:rdf="http://www.w3.org/1999/02/22-rdf-syntax-ns#"
   xmlns:svg="http://www.w3.org/2000/svg"
   xmlns="http://www.w3.org/2000/svg"
   xmlns:sodipodi="http://sodipodi.sourceforge.net/DTD/sodipodi-0.dtd"
   xmlns:inkscape="http://www.inkscape.org/namespaces/inkscape"
   version="1.1"
   x="0px"
   y="0px"
   viewBox="0 0 140 100"
   xml:space="preserve"
   id="svg18"
   sodipodi:docname="contacts.svg"
   width="140"
   height="100"
   inkscape:version="0.92.1 r15371"><metadata
     id="metadata24"><rdf:RDF><cc:Work
         rdf:about=""><dc:format>image/svg+xml</dc:format><dc:type
           rdf:resource="http://purl.org/dc/dcmitype/StillImage" /><dc:title></dc:title></cc:Work></rdf:RDF></metadata><defs
     id="defs22" /><sodipodi:namedview
     pagecolor="#ffffff"
     bordercolor="#666666"
     borderopacity="1"
     objecttolerance="10"
     gridtolerance="10"
     guidetolerance="10"
     inkscape:pageopacity="0"
     inkscape:pageshadow="2"
     inkscape:window-width="1600"
     inkscape:window-height="840"
     id="namedview20"
     showgrid="false"
     inkscape:zoom="0.68113143"
     inkscape:cx="-346.01127"
     inkscape:cy="283.92005"
     inkscape:window-x="0"
     inkscape:window-y="0"
     inkscape:window-maximized="1"
     inkscape:current-layer="svg18" /><style
     type="text/css"
     id="style2">
	.st0{fill:#A0F2F8;}
	.st1{fill:#FFFFFF;}
</style><g
     id="Vrstva_2"
     transform="translate(0,-390)" /><g
     id="Vrstva_1"
     transform="matrix(0.32505526,0,0,0.32505526,-9.6369164,-29.641789)"><g
       id="g15"><g
         id="g11"><path
           class="st1"
           d="m 237.62,215.35 c 16.25,0 29.46,-13.22 29.46,-29.46 0,-16.24 -13.22,-29.46 -29.46,-29.46 -16.24,0 -29.46,13.22 -29.46,29.46 0,16.24 13.21,29.46 29.46,29.46 z m 0,-46.92 c 9.63,0 17.46,7.83 17.46,17.46 0,9.63 -7.83,17.46 -17.46,17.46 -9.63,0 -17.46,-7.83 -17.46,-17.46 0,-9.63 7.83,-17.46 17.46,-17.46 z"
           id="path5"
           inkscape:connector-curvature="0"
           style="fill:#ffffff" /><path
           class="st1"
           d="m 308.99,230.78 c 14.27,0 25.87,-11.61 25.87,-25.87 0,-14.27 -11.61,-25.87 -25.87,-25.87 -14.27,0 -25.87,11.61 -25.87,25.87 -0.01,14.26 11.6,25.87 25.87,25.87 z m 0,-39.75 c 7.65,0 13.87,6.22 13.87,13.87 0,7.65 -6.22,13.87 -13.87,13.87 -7.65,0 -13.87,-6.22 -13.87,-13.87 0,-7.65 6.22,-13.87 13.87,-13.87 z"
           id="path7"
           inkscape:connector-curvature="0"
           style="fill:#ffffff" /><path
           class="st1"
           d="m 311.57,243.67 h -5.17 c -10.45,0 -19.88,4.47 -26.49,11.58 -5.69,-16.2 -21.13,-27.85 -39.24,-27.85 h -6.11 c -22.93,0 -41.58,18.66 -41.58,41.59 v 57.4 c 0,3.31 2.69,6 6,6 h 142.74 c 3.31,0 6,-2.69 6,-6 v -46.58 c 0,-19.93 -16.22,-36.14 -36.15,-36.14 z m -106.59,25.32 c 0,-16.31 13.27,-29.59 29.58,-29.59 h 6.11 c 16.31,0 29.58,13.27 29.58,29.59 v 51.4 h -65.28 v -51.4 z m 130.74,51.4 h -53.46 v -40.58 c 0,-13.31 10.83,-24.14 24.14,-24.14 h 5.17 c 13.31,0 24.14,10.83 24.14,24.14 v 40.58 z"
           id="path9"
           inkscape:connector-curvature="0"
           style="fill:#ffffff" /></g><path
         class="st0"
         d="M 413.09,124.01 H 393.87 C 392.35,105.66 376.94,91.19 358.21,91.19 H 118.93 c -19.74,0 -35.8,16.06 -35.8,35.8 v 3.03 h -6.22 c -4.96,0 -9,4.04 -9,9 v 39.25 c 0,4.96 4.04,9 9,9 h 6.22 v 29.12 h -6.22 c -4.96,0 -9,4.04 -9,9 v 39.25 c 0,4.96 4.04,9 9,9 h 6.22 v 29.11 h -6.22 c -4.96,0 -9,4.04 -9,9 V 351 c 0,4.96 4.04,9 9,9 h 6.22 v 3.03 c 0,19.74 16.06,35.8 35.8,35.8 H 358.2 c 19.74,0 35.8,-16.06 35.8,-35.8 V 195.48 h 19.08 c 4.96,0 9,-4.04 9,-9 v -53.47 c 0.01,-4.97 -4.03,-9 -8.99,-9 z M 79.91,142.02 h 26.35 v 33.25 H 79.91 Z m 0,86.36 h 26.35 v 33.25 H 79.91 Z m 0,86.36 h 26.35 v 33.25 H 79.91 Z m 15.23,48.27 v -3.03 h 14.13 c 4.96,0 9,-4.04 9,-9 v -39.25 c 0,-4.96 -4.04,-9 -9,-9 H 95.14 v -29.11 h 14.13 c 4.96,0 9,-4.04 9,-9 v -39.25 c 0,-4.96 -4.04,-9 -9,-9 H 95.14 v -29.12 h 14.13 c 4.96,0 9,-4.04 9,-9 V 139 c 0,-4.96 -4.04,-9 -9,-9 H 95.14 v -3.03 c 0,-13.12 10.68,-23.8 23.8,-23.8 h 29.12 v 283.62 h -29.12 c -13.13,0.02 -23.8,-10.65 -23.8,-23.78 z m 286.86,0 c 0,13.12 -10.68,23.8 -23.8,23.8 H 160.06 V 103.19 H 358.2 c 13.12,0 23.8,10.68 23.8,23.8 z M 410.09,183.48 H 394 v -47.47 h 16.08 v 47.47 z"
         id="path13"
         inkscape:connector-curvature="0"
         style="fill:#a0f2f8" /></g></g></svg>