<?xml version="1.0" encoding="UTF-8" standalone="no"?>
<!-- Generator: Adobe Illustrator 26.3.1, SVG Export Plug-In . SVG Version: 6.00 Build 0)  -->

<svg
   xmlns:dc="http://purl.org/dc/elements/1.1/"
   xmlns:cc="http://creativecommons.org/ns#"
   xmlns:rdf="http://www.w3.org/1999/02/22-rdf-syntax-ns#"
   xmlns:svg="http://www.w3.org/2000/svg"
   xmlns="http://www.w3.org/2000/svg"
   xmlns:sodipodi="http://sodipodi.sourceforge.net/DTD/sodipodi-0.dtd"
   xmlns:inkscape="http://www.inkscape.org/namespaces/inkscape"
   version="1.1"
   x="0px"
   y="0px"
   viewBox="0 0 140 100"
   xml:space="preserve"
   id="svg18"
   sodipodi:docname="ms.svg"
   width="140"
   height="100"
   inkscape:version="0.92.1 r15371"><metadata
     id="metadata24"><rdf:RDF><cc:Work
         rdf:about=""><dc:format>image/svg+xml</dc:format><dc:type
           rdf:resource="http://purl.org/dc/dcmitype/StillImage" /><dc:title></dc:title></cc:Work></rdf:RDF></metadata><defs
     id="defs22" /><sodipodi:namedview
     pagecolor="#ffffff"
     bordercolor="#666666"
     borderopacity="1"
     objecttolerance="10"
     gridtolerance="10"
     guidetolerance="10"
     inkscape:pageopacity="0"
     inkscape:pageshadow="2"
     inkscape:window-width="1600"
     inkscape:window-height="840"
     id="namedview20"
     showgrid="false"
     inkscape:zoom="0.48163265"
     inkscape:cx="-166.10169"
     inkscape:cy="245"
     inkscape:window-x="0"
     inkscape:window-y="0"
     inkscape:window-maximized="1"
     inkscape:current-layer="svg18" /><style
     type="text/css"
     id="style2">
	.st0{fill:#A0F2F8;}
	.st1{fill:#FFFFFF;}
</style><g
     id="Vrstva_2"
     transform="translate(0,-390)" /><g
     id="Vrstva_1"
     transform="matrix(0.30506406,0,0,0.30506406,-4.7391694,-24.740695)"><g
       id="g15"><path
         class="st1"
         d="m 245,348.45 c -25.48,0 -49.96,-9.35 -68.94,-26.31 -2.47,-2.21 -2.68,-6 -0.47,-8.47 2.21,-2.47 6,-2.68 8.47,-0.47 16.77,15 38.41,23.26 60.94,23.26 22.53,0 44.17,-8.26 60.93,-23.26 2.47,-2.21 6.26,-2 8.47,0.47 2.21,2.47 2,6.26 -0.47,8.47 -18.97,16.96 -43.45,26.31 -68.93,26.31 z"
         id="path5"
         inkscape:connector-curvature="0"
         style="fill:#ffffff" /><path
         class="st0"
         d="m 245,408.9 c -36.25,0 -70.6,-11.59 -99.34,-33.53 C 118.83,354.9 98.68,326.17 88.61,294.16 65.98,289.02 49.37,268.54 49.37,245 c 0,-23.54 16.62,-44.02 39.24,-49.16 2.92,-9.27 6.68,-18.27 11.21,-26.87 0.04,-0.1 0.09,-0.21 0.13,-0.31 0.14,-0.31 0.31,-0.61 0.5,-0.88 11.06,-20.61 26.52,-38.89 45.21,-53.16 C 174.4,92.69 208.75,81.1 245,81.1 c 36.39,0 70.83,11.67 99.62,33.75 16.83,10.12 47.36,1.31 47.67,1.22 2.93,-0.86 6.04,0.61 7.22,3.42 7.69,18.17 1.4,31.5 -5.23,39.49 -1.96,2.36 -4.06,4.39 -6.08,6.08 5.53,9.52 9.55,18.94 13.19,30.78 22.62,5.15 39.23,25.63 39.23,49.16 0,23.54 -16.62,44.02 -39.24,49.16 -10.07,32.01 -30.22,60.74 -57.05,81.21 C 315.6,397.31 281.25,408.9 245,408.9 Z M 94.11,282.99 c 2.33,0.32 4.29,1.98 4.95,4.28 18.67,64.55 78.68,109.63 145.94,109.63 67.26,0 127.27,-45.08 145.93,-109.63 0.67,-2.32 2.65,-3.98 5,-4.28 18.65,-2.78 32.7,-19.09 32.7,-37.99 0,-18.91 -14.07,-35.23 -32.73,-37.99 -2.33,-0.32 -4.3,-1.98 -4.96,-4.28 -3.55,-12.28 -7.38,-21.66 -12.76,-31.05 -0.16,0.07 -0.32,0.12 -0.49,0.18 -31.42,9.84 -54.67,3.77 -68.65,-3.06 -9.17,-4.48 -15.65,-9.85 -19.45,-13.53 -46.2,33.39 -93.58,37.82 -125.61,35.5 -26.41,-1.91 -46.58,-8.45 -55.73,-11.93 -3.7,7.61 -6.79,15.59 -9.19,23.9 -0.67,2.33 -2.67,4 -5.04,4.29 -18.63,2.79 -32.66,19.1 -32.66,37.98 0.01,18.9 14.08,35.23 32.75,37.98 z m 19.88,-114.85 c 9.09,3.31 27.69,9.03 51.32,10.68 44.87,3.14 85.71,-9.09 121.37,-36.35 2.62,-2.01 6.38,-1.52 8.39,1.1 1.05,1.34 26.65,33 78.57,16.98 1.38,-0.72 7.13,-3.94 11.64,-9.51 5.4,-6.66 7,-13.92 4.85,-22.07 -10.95,2.41 -35.53,6.14 -52.06,-4.06 -0.18,-0.11 -0.35,-0.23 -0.51,-0.35 C 310.84,103.98 278.83,93.1 245,93.1 c -54.45,0 -104.15,29.55 -131.01,75.04 z"
         id="path7"
         inkscape:connector-curvature="0"
         style="fill:#a0f2f8" /><g
         id="g13"><path
           class="st1"
           d="m 217.04,239.52 c 0,10.9 -8.84,19.74 -19.74,19.74 -10.9,0 -19.74,-8.84 -19.74,-19.74 0,-10.9 8.83,-19.74 19.74,-19.74 10.9,0 19.74,8.84 19.74,19.74 z"
           id="path9"
           inkscape:connector-curvature="0"
           style="fill:#ffffff" /><circle
           transform="matrix(0.2298,-0.9732,0.9732,0.2298,-7.6594,469.3572)"
           class="st1"
           cx="292.70001"
           cy="239.52"
           id="ellipse11"
           r="19.74"
           style="fill:#ffffff" /></g></g></g></svg>