<?xml version="1.0" encoding="UTF-8" standalone="no"?>
<!-- Generator: Adobe Illustrator 26.3.1, SVG Export Plug-In . SVG Version: 6.00 Build 0)  -->

<svg
   xmlns:dc="http://purl.org/dc/elements/1.1/"
   xmlns:cc="http://creativecommons.org/ns#"
   xmlns:rdf="http://www.w3.org/1999/02/22-rdf-syntax-ns#"
   xmlns:svg="http://www.w3.org/2000/svg"
   xmlns="http://www.w3.org/2000/svg"
   xmlns:sodipodi="http://sodipodi.sourceforge.net/DTD/sodipodi-0.dtd"
   xmlns:inkscape="http://www.inkscape.org/namespaces/inkscape"
   version="1.1"
   x="0px"
   y="0px"
   viewBox="0 0 140 100"
   xml:space="preserve"
   id="svg28"
   sodipodi:docname="news.svg"
   width="140"
   height="100"
   inkscape:version="0.92.1 r15371"><metadata
     id="metadata34"><rdf:RDF><cc:Work
         rdf:about=""><dc:format>image/svg+xml</dc:format><dc:type
           rdf:resource="http://purl.org/dc/dcmitype/StillImage" /><dc:title></dc:title></cc:Work></rdf:RDF></metadata><defs
     id="defs32" /><sodipodi:namedview
     pagecolor="#ffffff"
     bordercolor="#666666"
     borderopacity="1"
     objecttolerance="10"
     gridtolerance="10"
     guidetolerance="10"
     inkscape:pageopacity="0"
     inkscape:pageshadow="2"
     inkscape:window-width="1600"
     inkscape:window-height="840"
     id="namedview30"
     showgrid="false"
     inkscape:zoom="0.48163265"
     inkscape:cx="31.144068"
     inkscape:cy="245"
     inkscape:window-x="0"
     inkscape:window-y="0"
     inkscape:window-maximized="1"
     inkscape:current-layer="svg28" /><style
     type="text/css"
     id="style2">
	.st0{fill:#A0F2F8;}
	.st1{fill:#FFFFFF;}
</style><g
     id="Vrstva_2"
     transform="translate(0,-390)" /><g
     id="Vrstva_1"
     transform="matrix(0.32859067,0,0,0.32859067,-10.504714,-30.506357)"><g
       id="g25"><path
         class="st0"
         d="m 135.83,314.4 c -40.75,0 -73.9,-33.15 -73.9,-73.9 0,-40.75 33.15,-73.9 73.9,-73.9 3.31,0 6,2.69 6,6 0,3.31 -2.69,6 -6,6 -34.13,0 -61.9,27.77 -61.9,61.9 0,34.13 27.77,61.9 61.9,61.9 3.31,0 6,2.69 6,6 0,3.31 -2.68,6 -6,6 z"
         id="path5"
         inkscape:connector-curvature="0"
         style="fill:#a0f2f8" /><path
         class="st0"
         d="m 199.37,313.59 h -63.54 c -3.31,0 -6,-2.69 -6,-6 V 172.6 c 0,-3.31 2.69,-6 6,-6 h 63.54 c 3.31,0 6,2.69 6,6 v 134.99 c 0,3.31 -2.68,6 -6,6 z m -57.54,-12 h 51.54 V 178.6 h -51.54 z"
         id="path7"
         inkscape:connector-curvature="0"
         style="fill:#a0f2f8" /><path
         class="st0"
         d="m 152.2,397.17 c -12.33,0 -22.36,-10.03 -22.36,-22.36 v -67.22 c 0,-3.31 2.69,-6 6,-6 3.31,0 6,2.69 6,6 v 67.22 c 0,5.71 4.65,10.36 10.36,10.36 5.71,0 10.36,-4.65 10.36,-10.36 v -67.22 c 0,-3.31 2.69,-6 6,-6 3.31,0 6,2.69 6,6 v 67.22 c 0,12.32 -10.03,22.36 -22.36,22.36 z"
         id="path9"
         inkscape:connector-curvature="0"
         style="fill:#a0f2f8" /><path
         class="st0"
         d="m 199.38,178.6 c -2.27,0 -4.44,-1.29 -5.45,-3.49 -1.39,-3.01 -0.08,-6.57 2.93,-7.96 l 124.35,-57.4 c 3.01,-1.39 6.57,-0.08 7.96,2.93 1.39,3.01 0.08,6.57 -2.93,7.96 l -124.35,57.4 c -0.82,0.38 -1.67,0.56 -2.51,0.56 z"
         id="path11"
         inkscape:connector-curvature="0"
         style="fill:#a0f2f8" /><path
         class="st0"
         d="m 323.72,370.99 c -0.84,0 -1.7,-0.18 -2.51,-0.55 l -124.35,-57.4 c -3.01,-1.39 -4.32,-4.95 -2.93,-7.96 1.39,-3.01 4.95,-4.32 7.96,-2.93 l 124.35,57.4 c 3.01,1.39 4.32,4.95 2.93,7.96 -1.01,2.18 -3.18,3.48 -5.45,3.48 z"
         id="path13"
         inkscape:connector-curvature="0"
         style="fill:#a0f2f8" /><path
         class="st0"
         d="m 65.63,271.57 c -17.98,0 -32.61,-13.94 -32.61,-31.07 0,-17.13 14.63,-31.07 32.61,-31.07 3.31,0 6,2.69 6,6 0,3.31 -2.69,6 -6,6 -11.36,0 -20.61,8.55 -20.61,19.07 0,10.51 9.24,19.07 20.61,19.07 3.31,0 6,2.69 6,6 0,3.31 -2.69,6 -6,6 z"
         id="path15"
         inkscape:connector-curvature="0"
         style="fill:#a0f2f8" /><path
         class="st1"
         d="m 396.28,240.5 c 0,-19.92 -14.7,-36.48 -33.83,-39.38 V 115.2 c 0,-12.33 -10.03,-22.36 -22.36,-22.36 -12.33,0 -22.36,10.03 -22.36,22.36 v 249.79 c 0,12.33 10.03,22.36 22.36,22.36 12.33,0 22.36,-10.03 22.36,-22.36 v -85.11 c 19.13,-2.9 33.83,-19.46 33.83,-39.38 z m -45.83,124.49 c 0,5.71 -4.65,10.36 -10.36,10.36 -5.71,0 -10.36,-4.65 -10.36,-10.36 V 115.2 c 0,-5.71 4.65,-10.36 10.36,-10.36 5.71,0 10.36,4.65 10.36,10.36 z m 12,-97.32 v -54.35 c 12.47,2.75 21.83,13.89 21.83,27.17 0,13.3 -9.36,24.43 -21.83,27.18 z"
         id="path17"
         inkscape:connector-curvature="0"
         style="fill:#ffffff" /><path
         class="st1"
         d="m 450.98,246.09 h -28.36 c -3.31,0 -6,-2.69 -6,-6 0,-3.31 2.69,-6 6,-6 h 28.36 c 3.31,0 6,2.69 6,6 0,3.31 -2.69,6 -6,6 z"
         id="path19"
         inkscape:connector-curvature="0"
         style="fill:#ffffff" /><path
         class="st1"
         d="m 433.31,306.13 c -1.11,0 -2.24,-0.31 -3.24,-0.96 l -23.84,-15.36 c -2.79,-1.79 -3.59,-5.51 -1.79,-8.29 1.79,-2.79 5.5,-3.59 8.29,-1.8 l 23.84,15.36 c 2.79,1.79 3.59,5.51 1.79,8.29 -1.15,1.79 -3.08,2.76 -5.05,2.76 z"
         id="path21"
         inkscape:connector-curvature="0"
         style="fill:#ffffff" /><path
         class="st1"
         d="m 409.48,201.41 c -1.97,0 -3.9,-0.97 -5.05,-2.75 -1.79,-2.79 -0.99,-6.5 1.79,-8.29 L 430.07,175 c 2.79,-1.79 6.5,-0.99 8.29,1.8 1.79,2.79 0.99,6.5 -1.79,8.29 l -23.84,15.36 c -1.02,0.65 -2.14,0.96 -3.25,0.96 z"
         id="path23"
         inkscape:connector-curvature="0"
         style="fill:#ffffff" /></g></g></svg>